<svg width="92" height="92" viewBox="0 0 92 92" fill="none" xmlns="http://www.w3.org/2000/svg">
<circle cx="46" cy="46" r="46" fill="black"/>
<path d="M60.4094 67C61.2051 67 61.8504 66.3547 61.8504 65.559C61.8504 64.7631 61.2051 64.118 60.4094 64.118H57.9403L57.9401 59.6914C57.9401 55.2132 55.4826 51.0969 51.0202 48.1005C50.465 47.7277 50.1202 46.9229 50.1202 46.0002C50.1202 45.0775 50.465 44.2726 51.0204 43.8996C55.4826 40.9033 57.9401 36.7872 57.9404 32.3089V27.8822H60.4094C61.2051 27.8822 61.8504 27.2369 61.8504 26.4412C61.8504 25.6454 61.2051 25 60.4094 25H31.441C30.6453 25 30 25.6453 30 26.441C30 27.2368 30.6453 27.882 31.441 27.882H33.91V32.3087C33.91 36.7871 36.3675 40.9032 40.8301 43.8996C41.3851 44.2724 41.7299 45.0771 41.7299 46.0001C41.7299 46.9229 41.3851 47.7277 40.83 48.1006C36.3675 51.0969 33.91 55.2131 33.91 59.6914V64.118H31.441C30.6453 64.118 30 64.7632 30 65.559C30 66.3549 30.6453 67 31.441 67H60.4094Z" fill="#FFBD6E"/>
</svg>
