<svg width="92" height="92" viewBox="0 0 92 92" fill="none" xmlns="http://www.w3.org/2000/svg">
<circle cx="46" cy="46" r="46" fill="black"/>
<path d="M27.7857 30.4088C28.3385 30.8306 29.1282 30.7244 29.5501 30.172C33.2631 25.3073 38.8945 22.5175 45.0008 22.5175C51.107 22.5175 56.7384 25.3075 60.4514 30.172C60.6992 30.4965 61.0739 30.6669 61.4531 30.6669C61.7192 30.6669 61.9879 30.5828 62.2158 30.4088C62.7683 29.9869 62.8743 29.1971 62.4527 28.6445C58.2592 23.1508 51.8983 20 45.0008 20C38.1032 20 31.7423 23.1508 27.549 28.6445C27.1272 29.1971 27.2332 29.9869 27.7857 30.4088Z" fill="#FFBD6E"/>
<path d="M58.3802 37.1232C58.3802 39.2909 60.144 41.0546 62.3116 41.0546C64.4792 41.0546 66.2429 39.2909 66.2429 37.1232C66.2429 34.9556 64.4792 33.1919 62.3116 33.1919C60.144 33.1919 58.3802 34.9554 58.3802 37.1232Z" fill="#FFBD6E"/>
<path d="M66.3351 42.3595C66.326 42.3565 65.3355 42.0525 65.3355 42.0525C64.9768 41.943 64.5872 42.0105 64.2869 42.2352L62.3117 43.7141L60.3365 42.2352C60.0361 42.0103 59.6463 41.9428 59.288 42.0525C59.288 42.0525 58.2974 42.3565 58.2884 42.3595C56.6946 42.891 55.6238 44.3766 55.6238 46.0565V51.9999C55.6238 52.2292 55.6907 52.4534 55.8169 52.6449L57.8101 55.6782V63.6442C57.8101 64.2931 58.336 64.819 58.9848 64.819H65.6388C66.2877 64.819 66.8135 64.2931 66.8135 63.6442V55.6782L68.8067 52.6449C68.9327 52.4533 68.9998 52.229 68.9998 51.9999V46.0565C68.9998 44.3766 67.9289 42.891 66.3351 42.3595Z" fill="#FFBD6E"/>
<path d="M27.6876 41.0546C29.8552 41.0546 31.6189 39.2909 31.6189 37.1232C31.6189 34.9556 29.8552 33.1919 27.6876 33.1919C25.5199 33.1919 23.756 34.9554 23.756 37.1232C23.756 39.291 25.5198 41.0546 27.6876 41.0546Z" fill="#FFBD6E"/>
<path d="M31.7113 42.3595C31.7022 42.3565 30.7117 42.0525 30.7117 42.0525C30.3529 41.943 29.9636 42.0105 29.6631 42.2352L27.6879 43.7141L25.7128 42.2352C25.4125 42.0103 25.0225 41.9428 24.6642 42.0525C24.6642 42.0525 23.6737 42.3565 23.6646 42.3595C22.0708 42.891 21 44.3766 21 46.0565V51.9999C21 52.2292 21.067 52.4534 21.1931 52.6449L23.1863 55.6782V63.6442C23.1863 64.2931 23.7122 64.819 24.361 64.819H31.0148C31.6637 64.819 32.1896 64.2931 32.1896 63.6442V55.6782L34.1828 52.6449C34.3088 52.4533 34.3759 52.229 34.3759 51.9999V46.0565C34.3759 44.3766 33.305 42.891 31.7113 42.3595Z" fill="#FFBD6E"/>
<path d="M50.0699 31.5817C50.0699 28.7858 47.7951 26.511 44.9991 26.511C42.2031 26.511 39.9283 28.7858 39.9283 31.5817C39.9283 34.3779 42.2031 36.6525 44.9991 36.6525C47.7951 36.6525 50.0699 34.3779 50.0699 31.5817Z" fill="#FFBD6E"/>
<path d="M50.5715 39.1109L50.5631 39.1082L49.1159 38.6641C48.8876 38.5939 48.6436 38.7147 48.5615 38.94L45.5183 47.29C45.3426 47.7717 44.6615 47.7717 44.4859 47.29L41.4426 38.94C41.3763 38.7581 41.2047 38.644 41.0207 38.644C40.9771 38.644 39.4427 39.1075 39.4427 39.1075C37.5938 39.7236 36.3587 41.4375 36.3587 43.3755V52.2085C36.3587 52.2962 36.3844 52.382 36.4326 52.4553L39.608 57.2875V69.5144C39.608 69.7627 39.8093 69.9639 40.0576 69.9639H49.9466C50.1949 69.9639 50.3961 69.7627 50.3961 69.5144V57.2875L53.5716 52.4553C53.6197 52.382 53.6454 52.2962 53.6454 52.2085V43.3523C53.6453 41.4227 52.4052 39.7116 50.5715 39.1109Z" fill="#FFBD6E"/>
<path d="M46.1881 38.9352C46.0625 38.7982 45.8786 38.7292 45.6925 38.7292H44.3055C44.1196 38.7292 43.9357 38.7982 43.8099 38.9352C43.6152 39.1473 43.587 39.4536 43.7251 39.693L44.4665 40.8107L44.1194 43.7388L44.8029 45.557C44.8696 45.7399 45.1281 45.7399 45.1949 45.557L45.8784 43.7388L45.5314 40.8107L46.2728 39.693C46.411 39.4536 46.3828 39.1473 46.1881 38.9352Z" fill="#FFBD6E"/>
</svg>
