<svg width="92" height="92" viewBox="0 0 92 92" fill="none" xmlns="http://www.w3.org/2000/svg">
<circle cx="46" cy="46" r="46" fill="black"/>
<g clip-path="url(#clip0)">
<path d="M65.3042 62.8872H26.4153V68.6111H65.3042V62.8872Z" fill="#FFBD6E"/>
<path d="M68.2222 38.0556C69.7562 38.0556 71 36.8118 71 35.2778C71 33.7438 69.7562 32.5 68.2222 32.5C66.6882 32.5 65.4444 33.7438 65.4444 35.2778C65.4444 36.1517 65.8488 36.9303 66.48 37.4398L58.7434 42.6448L47.9042 29.2613C49.2475 28.5694 50.1667 27.1702 50.1667 25.5556C50.1667 23.2546 48.3012 21.3889 46 21.3889C43.6988 21.3889 41.8333 23.2546 41.8333 25.5556C41.8333 27.1743 42.7572 28.5766 44.1059 29.2665L33.3535 42.6448L25.5285 37.4335C26.1547 36.9241 26.5556 36.148 26.5556 35.2778C26.5556 33.7438 25.3118 32.5 23.7778 32.5C22.2438 32.5 21 33.7438 21 35.2778C21 36.8118 22.2438 38.0556 23.7778 38.0556C23.866 38.0556 23.953 38.0505 24.0392 38.0424L26.8443 57.5H23.7217V60.1936H68.1662V57.5H65.2175L67.9658 38.0426C68.0503 38.0504 68.1357 38.0556 68.2222 38.0556ZM46 42.1802C49.0684 42.1802 51.5556 44.6674 51.5556 47.7357C51.5556 50.8041 49.0684 53.2913 46 53.2913C42.9317 53.2913 40.4444 50.8041 40.4444 47.7357C40.4444 44.6674 42.9317 42.1802 46 42.1802Z" fill="#FFBD6E"/>
</g>
<defs>
<clipPath id="clip0">
<rect width="50" height="50" fill="white" transform="translate(21 20)"/>
</clipPath>
</defs>
</svg>
